<svg id="wave" style="transform:rotate(0deg); transition: 0.3s" viewBox="0 0 1440 490" version="1.1" xmlns="http://www.w3.org/2000/svg"><defs><linearGradient id="sw-gradient-0" x1="0" x2="0" y1="1" y2="0"><stop stop-color="rgba(236.245, 0, 0, 0.67)" offset="0%"></stop><stop stop-color="rgba(236.245, 7.537, 7.537, 0.81)" offset="100%"></stop></linearGradient></defs><path style="transform:translate(0, 0px); opacity:1" fill="url(#sw-gradient-0)" d="M0,98L48,122.5C96,147,192,196,288,212.3C384,229,480,212,576,179.7C672,147,768,98,864,65.3C960,33,1056,16,1152,49C1248,82,1344,163,1440,220.5C1536,278,1632,310,1728,326.7C1824,343,1920,343,2016,343C2112,343,2208,343,2304,326.7C2400,310,2496,278,2592,294C2688,310,2784,376,2880,375.7C2976,376,3072,310,3168,310.3C3264,310,3360,376,3456,367.5C3552,359,3648,278,3744,236.8C3840,196,3936,196,4032,163.3C4128,131,4224,65,4320,81.7C4416,98,4512,196,4608,196C4704,196,4800,98,4896,73.5C4992,49,5088,98,5184,171.5C5280,245,5376,343,5472,351.2C5568,359,5664,278,5760,212.3C5856,147,5952,98,6048,138.8C6144,180,6240,310,6336,359.3C6432,408,6528,376,6624,367.5C6720,359,6816,376,6864,383.8L6912,392L6912,490L6864,490C6816,490,6720,490,6624,490C6528,490,6432,490,6336,490C6240,490,6144,490,6048,490C5952,490,5856,490,5760,490C5664,490,5568,490,5472,490C5376,490,5280,490,5184,490C5088,490,4992,490,4896,490C4800,490,4704,490,4608,490C4512,490,4416,490,4320,490C4224,490,4128,490,4032,490C3936,490,3840,490,3744,490C3648,490,3552,490,3456,490C3360,490,3264,490,3168,490C3072,490,2976,490,2880,490C2784,490,2688,490,2592,490C2496,490,2400,490,2304,490C2208,490,2112,490,2016,490C1920,490,1824,490,1728,490C1632,490,1536,490,1440,490C1344,490,1248,490,1152,490C1056,490,960,490,864,490C768,490,672,490,576,490C480,490,384,490,288,490C192,490,96,490,48,490L0,490Z"></path><defs><linearGradient id="sw-gradient-1" x1="0" x2="0" y1="1" y2="0"><stop stop-color="rgba(222.584, 30.981, 30.981, 0.82)" offset="0%"></stop><stop stop-color="rgba(211.2, 176.08, 179.233, 0.95)" offset="100%"></stop></linearGradient></defs><path style="transform:translate(0, 50px); opacity:0.9" fill="url(#sw-gradient-1)" d="M0,294L48,253.2C96,212,192,131,288,106.2C384,82,480,114,576,147C672,180,768,212,864,187.8C960,163,1056,82,1152,89.8C1248,98,1344,196,1440,236.8C1536,278,1632,261,1728,228.7C1824,196,1920,147,2016,155.2C2112,163,2208,229,2304,253.2C2400,278,2496,261,2592,228.7C2688,196,2784,147,2880,122.5C2976,98,3072,98,3168,155.2C3264,212,3360,327,3456,326.7C3552,327,3648,212,3744,163.3C3840,114,3936,131,4032,114.3C4128,98,4224,49,4320,32.7C4416,16,4512,33,4608,73.5C4704,114,4800,180,4896,236.8C4992,294,5088,343,5184,310.3C5280,278,5376,163,5472,163.3C5568,163,5664,278,5760,343C5856,408,5952,425,6048,400.2C6144,376,6240,310,6336,277.7C6432,245,6528,245,6624,204.2C6720,163,6816,82,6864,40.8L6912,0L6912,490L6864,490C6816,490,6720,490,6624,490C6528,490,6432,490,6336,490C6240,490,6144,490,6048,490C5952,490,5856,490,5760,490C5664,490,5568,490,5472,490C5376,490,5280,490,5184,490C5088,490,4992,490,4896,490C4800,490,4704,490,4608,490C4512,490,4416,490,4320,490C4224,490,4128,490,4032,490C3936,490,3840,490,3744,490C3648,490,3552,490,3456,490C3360,490,3264,490,3168,490C3072,490,2976,490,2880,490C2784,490,2688,490,2592,490C2496,490,2400,490,2304,490C2208,490,2112,490,2016,490C1920,490,1824,490,1728,490C1632,490,1536,490,1440,490C1344,490,1248,490,1152,490C1056,490,960,490,864,490C768,490,672,490,576,490C480,490,384,490,288,490C192,490,96,490,48,490L0,490Z"></path><defs><linearGradient id="sw-gradient-2" x1="0" x2="0" y1="1" y2="0"><stop stop-color="rgba(249.906, 3.739, 3.739, 1)" offset="0%"></stop><stop stop-color="rgba(247.629, 247.629, 247.629, 1)" offset="100%"></stop></linearGradient></defs><path style="transform:translate(0, 100px); opacity:0.8" fill="url(#sw-gradient-2)" d="M0,294L48,261.3C96,229,192,163,288,147C384,131,480,163,576,204.2C672,245,768,294,864,277.7C960,261,1056,180,1152,130.7C1248,82,1344,65,1440,122.5C1536,180,1632,310,1728,367.5C1824,425,1920,408,2016,351.2C2112,294,2208,196,2304,204.2C2400,212,2496,327,2592,375.7C2688,425,2784,408,2880,343C2976,278,3072,163,3168,171.5C3264,180,3360,310,3456,310.3C3552,310,3648,180,3744,130.7C3840,82,3936,114,4032,147C4128,180,4224,212,4320,212.3C4416,212,4512,180,4608,212.3C4704,245,4800,343,4896,351.2C4992,359,5088,278,5184,269.5C5280,261,5376,327,5472,326.7C5568,327,5664,261,5760,253.2C5856,245,5952,294,6048,334.8C6144,376,6240,408,6336,416.5C6432,425,6528,408,6624,359.3C6720,310,6816,229,6864,187.8L6912,147L6912,490L6864,490C6816,490,6720,490,6624,490C6528,490,6432,490,6336,490C6240,490,6144,490,6048,490C5952,490,5856,490,5760,490C5664,490,5568,490,5472,490C5376,490,5280,490,5184,490C5088,490,4992,490,4896,490C4800,490,4704,490,4608,490C4512,490,4416,490,4320,490C4224,490,4128,490,4032,490C3936,490,3840,490,3744,490C3648,490,3552,490,3456,490C3360,490,3264,490,3168,490C3072,490,2976,490,2880,490C2784,490,2688,490,2592,490C2496,490,2400,490,2304,490C2208,490,2112,490,2016,490C1920,490,1824,490,1728,490C1632,490,1536,490,1440,490C1344,490,1248,490,1152,490C1056,490,960,490,864,490C768,490,672,490,576,490C480,490,384,490,288,490C192,490,96,490,48,490L0,490Z"></path></svg>